<svg xmlns="http://www.w3.org/2000/svg" xmlns:xlink="http://www.w3.org/1999/xlink" width="1920" zoomAndPan="magnify" viewBox="0 0 1440 1439.999935" height="1920" preserveAspectRatio="xMidYMid meet" version="1.0"><defs><clipPath id="e26ea86ee4"><path d="M 21.445312 112 L 1418.695312 112 L 1418.695312 1320 L 21.445312 1320 Z M 21.445312 112 " clip-rule="nonzero"/></clipPath></defs><g clip-path="url(#e26ea86ee4)"><path fill="#c98f8c" d="M 239.578125 112.628906 C 202.53125 115.773438 168.796875 140.414062 156.558594 177.621094 L 114.21875 305.292969 C 62.621094 309.59375 21.445312 352.921875 21.445312 405.511719 L 21.445312 531.863281 C 21.445312 545.585938 30.375 557.824219 43.4375 562.125 C 83.128906 574.859375 116.699219 624.636719 116.699219 685.496094 C 116.699219 746.519531 83.128906 796.300781 43.4375 809.035156 C 30.375 813.335938 21.445312 825.570312 21.445312 839.296875 L 21.445312 1028.984375 C 21.445312 1084.554688 67.085938 1130.03125 122.488281 1130.03125 L 623.75 1130.03125 L 1162.878906 1314.097656 C 1212.65625 1331.132812 1267.066406 1303.347656 1283.4375 1253.734375 L 1324.617188 1129.371094 C 1376.710938 1125.566406 1418.554688 1082.074219 1418.554688 1028.984375 L 1418.554688 839.296875 C 1418.554688 825.40625 1409.621094 813.167969 1396.558594 809.035156 C 1356.867188 796.300781 1323.296875 746.519531 1323.296875 685.496094 C 1323.296875 624.636719 1356.867188 574.859375 1396.558594 561.960938 C 1409.621094 557.824219 1418.554688 545.585938 1418.554688 531.863281 L 1418.554688 405.511719 C 1418.554688 350.113281 1372.910156 304.46875 1317.507812 304.46875 L 816.414062 304.46875 C 636.484375 242.121094 456.71875 179.441406 276.953125 117.09375 C 264.546875 112.960938 251.816406 111.636719 239.578125 112.628906 Z M 244.207031 175.636719 C 248.339844 175.472656 252.476562 175.96875 256.777344 177.457031 C 378.824219 219.792969 500.875 262.128906 622.757812 304.46875 L 181.363281 304.46875 L 216.753906 197.46875 C 221.054688 184.570312 231.804688 176.628906 244.207031 175.636719 Z M 122.488281 367.972656 L 1317.507812 367.972656 C 1338.839844 367.972656 1355.046875 384.179688 1355.046875 405.511719 L 1355.046875 513.667969 C 1296.339844 544.59375 1259.789062 611.078125 1259.789062 685.496094 C 1259.789062 759.917969 1296.339844 826.5625 1355.046875 857.324219 L 1355.046875 1028.984375 C 1355.046875 1050.320312 1338.839844 1066.527344 1317.507812 1066.527344 L 122.488281 1066.527344 C 101.15625 1066.527344 84.949219 1050.320312 84.949219 1028.984375 L 84.949219 857.488281 C 143.65625 826.5625 180.207031 759.917969 180.207031 685.496094 C 180.207031 611.078125 143.65625 544.59375 84.949219 513.667969 L 84.949219 405.511719 C 84.949219 384.179688 101.15625 367.972656 122.488281 367.972656 Z M 820.21875 1130.03125 L 1257.476562 1130.03125 L 1223.242188 1233.722656 C 1217.453125 1250.921875 1200.253906 1259.851562 1183.386719 1254.066406 Z M 820.21875 1130.03125 " fill-opacity="1" fill-rule="nonzero"/></g><path fill="#c98f8c" d="M 871.152344 765.539062 C 927.710938 765.539062 974.183594 812.011719 974.183594 868.40625 C 974.183594 924.964844 927.710938 971.433594 871.152344 971.433594 C 814.59375 971.433594 768.125 924.964844 768.125 868.40625 C 768.125 812.011719 814.59375 765.539062 871.152344 765.539062 Z M 871.152344 829.042969 C 848.992188 829.042969 831.628906 846.242188 831.628906 868.40625 C 831.628906 890.730469 848.992188 907.929688 871.152344 907.929688 C 893.3125 907.929688 910.679688 890.730469 910.679688 868.40625 C 910.679688 846.242188 893.3125 829.042969 871.152344 829.042969 Z M 871.152344 829.042969 " fill-opacity="1" fill-rule="nonzero"/><path fill="#c98f8c" d="M 568.84375 463.0625 C 625.238281 463.0625 671.875 509.535156 671.875 566.09375 C 671.875 622.652344 625.238281 669.125 568.84375 669.125 C 512.285156 669.125 465.8125 622.652344 465.8125 566.09375 C 465.8125 509.535156 512.285156 463.0625 568.84375 463.0625 Z M 568.84375 526.570312 C 546.515625 526.570312 529.316406 543.933594 529.316406 566.09375 C 529.316406 588.253906 546.515625 605.621094 568.84375 605.621094 C 591.003906 605.621094 608.367188 588.253906 608.367188 566.09375 C 608.367188 543.933594 591.003906 526.570312 568.84375 526.570312 Z M 568.84375 526.570312 " fill-opacity="1" fill-rule="nonzero"/><path fill="#c98f8c" d="M 848.828125 543.601562 L 546.351562 846.078125 C 533.949219 858.480469 533.949219 878.492188 546.351562 890.894531 C 558.753906 903.300781 578.929688 903.300781 591.167969 890.894531 L 893.644531 588.585938 C 906.046875 576.183594 906.046875 556.007812 893.644531 543.601562 C 880.910156 532.191406 861.890625 531.035156 848.828125 543.601562 Z M 848.828125 543.601562 " fill-opacity="1" fill-rule="nonzero"/></svg>