<svg xmlns="http://www.w3.org/2000/svg" xmlns:xlink="http://www.w3.org/1999/xlink" width="1920" zoomAndPan="magnify" viewBox="0 0 1440 1439.999935" height="1920" preserveAspectRatio="xMidYMid meet" version="1.0"><defs><clipPath id="862bb24eac"><path d="M 62 59 L 1392 59 L 1392 1385.523438 L 62 1385.523438 Z M 62 59 " clip-rule="nonzero"/></clipPath></defs><path fill="#e7a7b1" d="M 1256.351562 958.4375 C 1230.644531 921.082031 1244.996094 867.085938 1238.597656 807.46875 C 1232.015625 710.195312 1190.222656 615.960938 1109.152344 540.585938 L 833.023438 283.835938 C 833.023438 283.835938 778.621094 233.207031 727.949219 287.648438 C 677.355469 342.050781 731.796875 392.683594 731.796875 392.683594 L 848.445312 501.195312 L 949.5625 595.210938 C 949.5625 595.210938 924.226562 622.433594 812.3125 518.359375 L 434.328125 166.78125 C 434.328125 166.78125 379.851562 116.1875 329.21875 170.628906 C 278.621094 225.03125 333.027344 275.664062 333.027344 275.664062 L 690.449219 608.121094 C 689.671875 607.378906 663.410156 633.710938 662.929688 633.269531 L 280.507812 277.585938 C 280.507812 277.585938 226.066406 226.957031 175.4375 281.398438 C 124.804688 335.839844 179.246094 386.433594 179.246094 386.433594 L 561.703125 742.1875 C 562.148438 742.632812 537.515625 770.445312 538.253906 771.148438 L 208.351562 464.25 C 208.351562 464.25 153.910156 413.617188 103.277344 468.058594 C 52.648438 522.5 107.089844 573.132812 107.089844 573.132812 L 457.851562 899.335938 C 461.070312 902.332031 439.359375 932.917969 443.390625 936.65625 L 190.636719 701.578125 C 190.636719 701.578125 136.195312 650.949219 85.5625 705.425781 C 34.929688 759.867188 89.371094 810.5 89.371094 810.5 L 501.640625 1193.773438 C 570.46875 1257.792969 641.148438 1290.191406 726.359375 1302.0625 C 743.707031 1304.46875 765.898438 1304.46875 774.996094 1305.613281 C 803.730469 1309.238281 828.957031 1319.445312 862.722656 1340.15625 C 906.179688 1366.785156 971.382812 1377.882812 1008.847656 1337.828125 L 1136.59375 1201.167969 L 1254.539062 1074.976562 C 1291.96875 1034.960938 1285.273438 1000.417969 1256.351562 958.4375 Z M 1256.351562 958.4375 " fill-opacity="1" fill-rule="nonzero"/><g clip-path="url(#862bb24eac)"><path fill="#ffdb5e" d="M 134.011719 1353.398438 C 124.542969 1353.398438 115.078125 1349.773438 107.863281 1342.5625 C 93.402344 1328.101562 93.402344 1304.726562 107.863281 1290.265625 L 239.199219 1159.007812 C 253.660156 1144.546875 277.03125 1144.546875 291.492188 1159.007812 C 305.953125 1173.46875 305.953125 1196.84375 291.492188 1211.304688 L 160.160156 1342.597656 C 152.949219 1349.808594 143.480469 1353.398438 134.011719 1353.398438 Z M 383.511719 1387.496094 C 379.480469 1387.496094 375.339844 1386.832031 371.269531 1385.425781 C 352 1378.695312 341.828125 1357.613281 348.597656 1338.308594 L 384.511719 1235.75 C 391.242188 1216.480469 412.359375 1206.347656 431.628906 1213.042969 C 450.898438 1219.808594 461.070312 1240.890625 454.300781 1260.160156 L 418.386719 1362.71875 C 413.0625 1377.957031 398.785156 1387.496094 383.511719 1387.496094 Z M 99.949219 1103.9375 C 84.710938 1103.9375 70.4375 1094.429688 65.074219 1079.265625 C 58.269531 1060 68.363281 1038.878906 87.632812 1032.074219 L 179.910156 999.492188 C 199.253906 992.835938 220.296875 1002.855469 227.101562 1022.050781 C 233.910156 1041.320312 223.8125 1062.4375 204.542969 1069.246094 L 112.265625 1101.828125 C 108.160156 1103.269531 104.019531 1103.9375 99.949219 1103.9375 Z M 1189.519531 298.890625 C 1180.050781 298.890625 1170.582031 295.265625 1163.371094 288.054688 C 1148.910156 273.59375 1148.910156 250.179688 1163.371094 235.71875 L 1294.742188 104.425781 C 1309.203125 90 1332.574219 90 1347.035156 104.425781 C 1361.5 118.847656 1361.496094 142.296875 1347.035156 156.757812 L 1215.667969 288.054688 C 1208.457031 295.304688 1198.988281 298.890625 1189.519531 298.890625 Z M 1035.515625 236.128906 C 1031.484375 236.128906 1027.339844 235.425781 1023.308594 234.019531 C 1004.039062 227.289062 993.871094 206.207031 1000.601562 186.902344 L 1036.476562 84.34375 C 1043.246094 65.074219 1064.289062 54.902344 1083.59375 61.632812 C 1102.863281 68.363281 1113.035156 89.445312 1106.304688 108.753906 L 1070.429688 211.3125 C 1065.101562 226.585938 1050.789062 236.128906 1035.515625 236.128906 Z M 1262.710938 449.675781 C 1247.472656 449.675781 1233.199219 440.171875 1227.835938 425.007812 C 1221.03125 405.738281 1231.164062 384.621094 1250.394531 377.816406 L 1342.636719 345.230469 C 1361.941406 338.390625 1383.023438 348.5625 1389.828125 367.792969 C 1396.632812 387.0625 1386.5 408.179688 1367.269531 414.984375 L 1275.027344 447.570312 C 1270.921875 449.011719 1266.78125 449.675781 1262.710938 449.675781 Z M 1262.710938 449.675781 " fill-opacity="1" fill-rule="nonzero"/></g><path fill="#f1d4d9" d="M 1370.558594 939.023438 C 1346.113281 900.851562 1362.273438 847.335938 1357.910156 787.53125 C 1354.582031 690.113281 1316.007812 594.507812 1237.523438 516.433594 L 970.199219 250.550781 C 970.199219 250.550781 917.535156 198.144531 865.050781 250.847656 C 812.644531 303.511719 865.347656 355.957031 865.347656 355.957031 L 978.300781 468.355469 L 1076.160156 565.699219 C 1076.160156 565.699219 1049.902344 592.03125 941.574219 484.257812 C 833.171875 376.445312 575.648438 120.144531 575.648438 120.144531 C 575.648438 120.144531 522.945312 67.734375 470.5 120.4375 C 418.054688 173.105469 470.757812 225.511719 470.757812 225.511719 L 816.789062 569.839844 C 816.046875 569.101562 788.902344 594.507812 788.421875 594.027344 L 418.203125 225.660156 C 418.203125 225.660156 365.5 173.214844 313.054688 225.917969 C 260.648438 278.621094 313.316406 331.03125 313.316406 331.03125 L 683.570312 699.472656 C 684.011719 699.914062 658.417969 726.878906 659.160156 727.617188 L 339.796875 409.808594 C 339.796875 409.808594 287.09375 357.398438 234.648438 410.101562 C 182.203125 462.804688 234.90625 515.25 234.90625 515.25 L 574.464844 853.105469 C 577.570312 856.175781 554.863281 886.058594 558.746094 889.941406 L 314.054688 646.472656 C 314.054688 646.472656 261.351562 594.066406 208.90625 646.769531 C 156.460938 699.472656 209.164062 751.914062 209.164062 751.914062 L 608.230469 1148.835938 C 674.878906 1215.148438 744.410156 1249.878906 829.175781 1264.632812 C 846.449219 1267.628906 868.640625 1268.371094 877.664062 1269.8125 C 906.253906 1274.398438 931.105469 1285.457031 964.207031 1307.316406 C 1006.742188 1335.386719 1071.539062 1348.664062 1110.335938 1309.902344 L 1242.628906 1177.648438 L 1364.753906 1055.523438 C 1403.550781 1016.6875 1398.039062 981.921875 1370.558594 939.019531 Z M 1370.558594 939.023438 " fill-opacity="1" fill-rule="nonzero"/></svg>